<svg width="36" height="36" viewBox="0 0 36 36" fill="none" xmlns="http://www.w3.org/2000/svg">
<path d="M18.2245 0.387695C20.5302 0.387695 22.7416 1.30365 24.372 2.93407C26.0024 4.56449 26.9184 6.77581 26.9184 9.08157C26.9184 11.3873 26.0024 13.5987 24.372 15.2291C22.7416 16.8595 20.5302 17.7755 18.2245 17.7755C15.9187 17.7755 13.7074 16.8595 12.077 15.2291C10.4466 13.5987 9.53061 11.3873 9.53061 9.08157C9.53061 6.77581 10.4466 4.56449 12.077 2.93407C13.7074 1.30365 15.9187 0.387695 18.2245 0.387695ZM18.2245 22.1224C27.8312 22.1224 35.6122 26.0129 35.6122 30.8163V35.1632H0.836731V30.8163C0.836731 26.0129 8.61775 22.1224 18.2245 22.1224Z" fill="#48A5BC"/>
</svg>
