<svg width="22" height="22" viewBox="0 0 22 22" fill="none" xmlns="http://www.w3.org/2000/svg">
<path d="M3.4 2C3.0287 2 2.6726 2.1475 2.41005 2.41005C2.1475 2.6726 2 3.0287 2 3.4V5C2 5.26522 1.89464 5.51957 1.70711 5.70711C1.51957 5.89464 1.26522 6 1 6C0.734784 6 0.48043 5.89464 0.292893 5.70711C0.105357 5.51957 0 5.26522 0 5V3.4C0 2.49826 0.358213 1.63346 0.995837 0.995837C1.63346 0.358213 2.49826 0 3.4 0H5C5.26522 0 5.51957 0.105357 5.70711 0.292893C5.89464 0.48043 6 0.734784 6 1C6 1.26522 5.89464 1.51957 5.70711 1.70711C5.51957 1.89464 5.26522 2 5 2H3.4ZM16 1C16 0.734784 16.1054 0.48043 16.2929 0.292893C16.4804 0.105357 16.7348 0 17 0H18.6C19.5017 0 20.3665 0.358213 21.0042 0.995837C21.6418 1.63346 22 2.49826 22 3.4V5C22 5.26522 21.8946 5.51957 21.7071 5.70711C21.5196 5.89464 21.2652 6 21 6C20.7348 6 20.4804 5.89464 20.2929 5.70711C20.1054 5.51957 20 5.26522 20 5V3.4C20 3.0287 19.8525 2.6726 19.5899 2.41005C19.3274 2.1475 18.9713 2 18.6 2H17C16.7348 2 16.4804 1.89464 16.2929 1.70711C16.1054 1.51957 16 1.26522 16 1ZM1 16C1.26522 16 1.51957 16.1054 1.70711 16.2929C1.89464 16.4804 2 16.7348 2 17V18.6C2 18.9713 2.1475 19.3274 2.41005 19.5899C2.6726 19.8525 3.0287 20 3.4 20H5C5.26522 20 5.51957 20.1054 5.70711 20.2929C5.89464 20.4804 6 20.7348 6 21C6 21.2652 5.89464 21.5196 5.70711 21.7071C5.51957 21.8946 5.26522 22 5 22H3.4C2.49826 22 1.63346 21.6418 0.995837 21.0042C0.358213 20.3665 0 19.5017 0 18.6V17C0 16.7348 0.105357 16.4804 0.292893 16.2929C0.48043 16.1054 0.734784 16 1 16ZM21 16C21.2652 16 21.5196 16.1054 21.7071 16.2929C21.8946 16.4804 22 16.7348 22 17V18.6C22 19.5017 21.6418 20.3665 21.0042 21.0042C20.3665 21.6418 19.5017 22 18.6 22H17C16.7348 22 16.4804 21.8946 16.2929 21.7071C16.1054 21.5196 16 21.2652 16 21C16 20.7348 16.1054 20.4804 16.2929 20.2929C16.4804 20.1054 16.7348 20 17 20H18.6C18.9713 20 19.3274 19.8525 19.5899 19.5899C19.8525 19.3274 20 18.9713 20 18.6V17C20 16.7348 20.1054 16.4804 20.2929 16.2929C20.4804 16.1054 20.7348 16 21 16ZM17 7C17.2652 7 17.5196 7.10536 17.7071 7.29289C17.8946 7.48043 18 7.73478 18 8V14C18 14.2652 17.8946 14.5196 17.7071 14.7071C17.5196 14.8946 17.2652 15 17 15C16.7348 15 16.4804 14.8946 16.2929 14.7071C16.1054 14.5196 16 14.2652 16 14V8C16 7.73478 16.1054 7.48043 16.2929 7.29289C16.4804 7.10536 16.7348 7 17 7ZM14 8C14 7.73478 13.8946 7.48043 13.7071 7.29289C13.5196 7.10536 13.2652 7 13 7C12.7348 7 12.4804 7.10536 12.2929 7.29289C12.1054 7.48043 12 7.73478 12 8V14C12 14.2652 12.1054 14.5196 12.2929 14.7071C12.4804 14.8946 12.7348 15 13 15C13.2652 15 13.5196 14.8946 13.7071 14.7071C13.8946 14.5196 14 14.2652 14 14V8ZM9 7C9.26522 7 9.51957 7.10536 9.70711 7.29289C9.89464 7.48043 10 7.73478 10 8V14C10 14.2652 9.89464 14.5196 9.70711 14.7071C9.51957 14.8946 9.26522 15 9 15C8.73478 15 8.48043 14.8946 8.29289 14.7071C8.10536 14.5196 8 14.2652 8 14V8C8 7.73478 8.10536 7.48043 8.29289 7.29289C8.48043 7.10536 8.73478 7 9 7ZM6 8C6 7.73478 5.89464 7.48043 5.70711 7.29289C5.51957 7.10536 5.26522 7 5 7C4.73478 7 4.48043 7.10536 4.29289 7.29289C4.10536 7.48043 4 7.73478 4 8V14C4 14.2652 4.10536 14.5196 4.29289 14.7071C4.48043 14.8946 4.73478 15 5 15C5.26522 15 5.51957 14.8946 5.70711 14.7071C5.89464 14.5196 6 14.2652 6 14V8Z" fill="#48A5BC"/>
</svg>
