<svg width="32" height="28" viewBox="0 0 32 28" fill="none" xmlns="http://www.w3.org/2000/svg">
<path fill-rule="evenodd" clip-rule="evenodd" d="M16.0097 3.60589C13.7767 1.32154 11.4432 0.192202 9.19887 0.0218676C6.66196 -0.167134 4.42216 0.885207 2.80403 2.55122C-0.379681 5.82257 -1.36702 11.7376 2.5869 15.8303L2.62804 15.8723L15.2372 27.6931C15.448 27.8905 15.7236 28 16.0097 28C16.2957 28 16.5714 27.8905 16.7822 27.6931L29.3913 15.8723L29.4096 15.856L29.4324 15.8326C33.3635 11.7609 32.3739 5.84591 29.1993 2.56988C27.5858 0.903874 25.3482 -0.155467 22.8159 0.0288677C20.5761 0.192202 18.2426 1.32388 16.0097 3.60589ZM15.4657 8.13959C15.3375 7.83606 15.1276 7.57582 14.8605 7.38901C14.5934 7.20219 14.2799 7.09643 13.9564 7.08398C13.6328 7.07153 13.3124 7.15289 13.0323 7.31865C12.7521 7.48441 12.5237 7.72778 12.3734 8.02059L10.4993 11.6746H8.03555C7.58093 11.6746 7.14494 11.859 6.82347 12.1872C6.50201 12.5154 6.32142 12.9605 6.32142 13.4246C6.32142 13.8888 6.50201 14.3339 6.82347 14.6621C7.14494 14.9903 7.58093 15.1746 8.03555 15.1746H11.5347C11.8477 15.1749 12.1549 15.0876 12.4229 14.9223C12.6908 14.7569 12.9092 14.5198 13.0545 14.2366L13.7402 12.8973L15.8885 17.984C16.0053 18.2608 16.19 18.5021 16.4249 18.6845C16.6598 18.867 16.9369 18.9845 17.2293 19.0255C17.5217 19.0666 17.8195 19.0299 18.0939 18.919C18.3684 18.808 18.6101 18.6266 18.7957 18.3923L21.3486 15.1746H23.9609C24.4156 15.1746 24.8516 14.9903 25.173 14.6621C25.4945 14.3339 25.6751 13.8888 25.6751 13.4246C25.6751 12.9605 25.4945 12.5154 25.173 12.1872C24.8516 11.859 24.4156 11.6746 23.9609 11.6746H20.5327C20.2773 11.6746 20.0251 11.7328 19.7946 11.845C19.564 11.9572 19.361 12.1206 19.2002 12.3233L17.9135 13.9426L15.4657 8.13959Z" fill="white"/>
</svg>
