<svg width="190" height="33" viewBox="0 0 190 33" fill="none" xmlns="http://www.w3.org/2000/svg">
<g style="mix-blend-mode:multiply" opacity="0.3">
<path d="M174.826 25.4968C141.109 18.3695 116.011 21.2879 98.9733 25.4968C91.3502 27.3828 82.095 30.3409 68.2222 31.2939C48.1395 32.6836 31.5599 28.9512 20.5134 25.4769" stroke="#231815" stroke-width="1.98531" stroke-linecap="round" stroke-linejoin="round"/>
<path d="M174.826 25.4968C141.109 18.3695 116.011 21.2879 98.9733 25.4968C91.3502 27.3828 82.095 30.3409 68.2222 31.2939C48.1395 32.6836 31.5599 28.9512 20.5134 25.4769" stroke="#231815" stroke-width="0.992653" stroke-linecap="round" stroke-linejoin="round"/>
</g>
<path d="M173.691 24.3648C139.975 17.2376 114.876 20.156 97.8389 24.3648C90.2158 26.2509 80.9607 29.209 67.0879 30.1619C47.0052 31.5516 30.4255 27.8193 19.379 24.345" stroke="#4696AB" stroke-width="1.98531" stroke-linecap="round" stroke-linejoin="round"/>
<path d="M173.691 24.3648C139.975 17.2376 114.876 20.156 97.8389 24.3648C90.2158 26.2509 80.9607 29.209 67.0879 30.1619C47.0052 31.5516 30.4255 27.8193 19.379 24.345" stroke="white" stroke-width="0.992653" stroke-linecap="round" stroke-linejoin="round"/>
<g style="mix-blend-mode:multiply" opacity="0.3">
<path d="M10.4425 23.154C11.3979 25.9731 15.4184 27.0253 17.8267 28.6731C18.2646 28.9709 18.8816 28.7724 19.0408 28.276C19.8768 25.7746 22.0861 22.876 21.7676 20.2554C21.5288 18.2701 19.3991 17.0789 17.5083 17.7738C16.314 18.2105 15.4582 18.8061 15.5776 19.8782C15.5776 19.9378 15.5179 19.9576 15.4781 19.8981C14.8611 18.8657 13.647 19.0047 12.2736 19.4613C10.741 19.9775 9.90509 21.6054 10.4226 23.1341L10.4425 23.154Z" fill="#231815"/>
<path d="M10.4425 23.154C11.3979 25.9731 15.4184 27.0253 17.8267 28.6731C18.2646 28.9709 18.8816 28.7724 19.0408 28.276C19.8768 25.7746 22.0861 22.876 21.7676 20.2554C21.5288 18.2701 19.3991 17.0789 17.5083 17.7738C16.314 18.2105 15.4582 18.8061 15.5776 19.8782C15.5776 19.9378 15.5179 19.9576 15.4781 19.8981C14.8611 18.8657 13.647 19.0047 12.2736 19.4613C10.741 19.9775 9.90509 21.6054 10.4226 23.1341L10.4425 23.154Z" stroke="#231815" stroke-width="3.97061" stroke-linecap="round" stroke-linejoin="round"/>
<path d="M10.4425 23.154C11.3979 25.9731 15.4184 27.0253 17.8267 28.6731C18.2646 28.9709 18.8816 28.7724 19.0408 28.276C19.8768 25.7746 22.0861 22.876 21.7676 20.2554C21.5288 18.2701 19.3991 17.0789 17.5083 17.7738C16.314 18.2105 15.4582 18.8061 15.5776 19.8782C15.5776 19.9378 15.5179 19.9576 15.4781 19.8981C14.8611 18.8657 13.647 19.0047 12.2736 19.4613C10.741 19.9775 9.90509 21.6054 10.4226 23.1341L10.4425 23.154Z" stroke="#231815" stroke-width="1.48898" stroke-linecap="round" stroke-linejoin="round"/>
<path d="M10.4425 23.154C11.3979 25.9731 15.4184 27.0253 17.8267 28.6731C18.2646 28.9709 18.8816 28.7724 19.0408 28.276C19.8768 25.7746 22.0861 22.876 21.7676 20.2554C21.5288 18.2701 19.3991 17.0789 17.5083 17.7738C16.314 18.2105 15.4582 18.8061 15.5776 19.8782C15.5776 19.9378 15.5179 19.9576 15.4781 19.8981C14.8611 18.8657 13.647 19.0047 12.2736 19.4613C10.741 19.9775 9.90509 21.6054 10.4226 23.1341L10.4425 23.154Z" fill="#231815"/>
</g>
<path d="M9.32782 22.0418C10.2832 24.8609 14.3037 25.9131 16.712 27.5609C17.1499 27.8587 17.7669 27.6602 17.9262 27.1639C18.7621 24.6624 20.9714 21.7638 20.6529 19.1432C20.4141 17.1579 18.2844 15.9667 16.3936 16.6616C15.1994 17.0984 14.3435 17.694 14.4629 18.766C14.4629 18.8256 14.4032 18.8454 14.3634 18.7859C13.7464 17.7535 12.5323 17.8925 11.1589 18.3491C9.62637 18.8653 8.79042 20.4932 9.30791 22.0219L9.32782 22.0418Z" fill="#4696AB"/>
<path d="M9.32782 22.0418C10.2832 24.8609 14.3037 25.9131 16.712 27.5609C17.1499 27.8587 17.7669 27.6602 17.9262 27.1639C18.7621 24.6624 20.9714 21.7638 20.6529 19.1432C20.4141 17.1579 18.2844 15.9667 16.3936 16.6616C15.1994 17.0984 14.3435 17.694 14.4629 18.766C14.4629 18.8256 14.4032 18.8454 14.3634 18.7859C13.7464 17.7535 12.5323 17.8925 11.1589 18.3491C9.62637 18.8653 8.79042 20.4932 9.30791 22.0219L9.32782 22.0418Z" stroke="#B6E1F7" stroke-width="3.97061" stroke-linecap="round" stroke-linejoin="round"/>
<path d="M9.32782 22.0418C10.2832 24.8609 14.3037 25.9131 16.712 27.5609C17.1499 27.8587 17.7669 27.6602 17.9262 27.1639C18.7621 24.6624 20.9714 21.7638 20.6529 19.1432C20.4141 17.1579 18.2844 15.9667 16.3936 16.6616C15.1994 17.0984 14.3435 17.694 14.4629 18.766C14.4629 18.8256 14.4032 18.8454 14.3634 18.7859C13.7464 17.7535 12.5323 17.8925 11.1589 18.3491C9.62637 18.8653 8.79042 20.4932 9.30791 22.0219L9.32782 22.0418Z" stroke="white" stroke-width="1.48898" stroke-linecap="round" stroke-linejoin="round"/>
<path d="M9.32782 22.0418C10.2832 24.8609 14.3037 25.9131 16.712 27.5609C17.1499 27.8587 17.7669 27.6602 17.9262 27.1639C18.7621 24.6624 20.9714 21.7638 20.6529 19.1432C20.4141 17.1579 18.2844 15.9667 16.3936 16.6616C15.1994 17.0984 14.3435 17.694 14.4629 18.766C14.4629 18.8256 14.4032 18.8454 14.3634 18.7859C13.7464 17.7535 12.5323 17.8925 11.1589 18.3491C9.62637 18.8653 8.79042 20.4932 9.30791 22.0219L9.32782 22.0418Z" fill="#479DB3"/>
<g style="mix-blend-mode:multiply" opacity="0.3">
<path d="M182.747 20.3744C182.528 20.3744 182.369 20.1759 182.369 19.9774C182.329 16.3442 180.956 14.2398 180.458 13.5847C180.339 13.4258 180.339 13.2472 180.399 13.0685C181.394 10.8648 181.175 8.60156 180.021 5.46477C178.806 2.18902 177.274 3.32064 177.274 3.32064C175.741 4.33315 177.592 5.66331 177.592 5.66331C179.065 7.15228 178.707 10.1302 178.727 10.8052C178.747 11.4802 178.03 13.1082 175.98 13.545C173.93 13.9817 172.159 15.57 170.686 16.9795C169.213 18.3891 175.244 20.7318 175.244 20.7318C176.219 20.9303 175.045 21.7046 175.045 21.7046L166.984 26.1715C166.287 26.5487 165.869 27.323 166.028 28.0973C166.128 28.673 166.486 28.8914 166.824 28.9509C167.163 29.0105 167.521 28.9311 167.82 28.7524L176.279 23.4913C177.154 22.9553 178.15 22.6377 179.185 22.598C181.334 22.5384 182.887 23.0744 182.887 23.0744C185.096 23.0149 183.165 25.0597 182.23 25.9333C181.872 26.2708 181.653 26.7274 181.692 27.2039C181.732 27.8193 182.11 28.1171 182.528 28.2561C183.185 28.4943 183.902 28.1767 184.28 27.6009L187.445 22.7568C188.022 20.8906 184.021 20.4538 182.767 20.3546L182.747 20.3744ZM174.109 18.6075L172.875 18.0119C172.497 17.8332 172.457 17.2972 172.796 17.059L173.93 16.2847C174.288 16.0465 174.766 16.2847 174.806 16.7016L174.905 18.0516C174.945 18.4685 174.507 18.7663 174.109 18.5876V18.6075Z" fill="#231815"/>
<path d="M173.353 11.798C174.627 12.5921 176.299 12.2348 177.115 10.984C177.931 9.73327 177.553 8.06561 176.299 7.27149C175.025 6.47737 173.353 6.83472 172.537 8.08546C171.721 9.33621 172.099 11.0039 173.353 11.798Z" fill="#231815"/>
<path d="M182.747 20.3744C182.528 20.3744 182.369 20.1759 182.369 19.9774C182.329 16.3442 180.956 14.2398 180.458 13.5847C180.339 13.4258 180.339 13.2472 180.399 13.0685C181.394 10.8648 181.175 8.60156 180.021 5.46477C178.806 2.18902 177.274 3.32064 177.274 3.32064C175.741 4.33315 177.592 5.66331 177.592 5.66331C179.065 7.15228 178.707 10.1302 178.727 10.8052C178.747 11.4802 178.03 13.1082 175.98 13.545C173.93 13.9817 172.159 15.57 170.686 16.9795C169.213 18.3891 175.244 20.7318 175.244 20.7318C176.219 20.9303 175.045 21.7046 175.045 21.7046L166.984 26.1715C166.287 26.5487 165.869 27.323 166.028 28.0973C166.128 28.673 166.486 28.8914 166.824 28.9509C167.163 29.0105 167.521 28.9311 167.82 28.7524L176.279 23.4913C177.154 22.9553 178.15 22.6377 179.185 22.598C181.334 22.5384 182.887 23.0744 182.887 23.0744C185.096 23.0149 183.165 25.0597 182.23 25.9333C181.872 26.2708 181.653 26.7274 181.692 27.2039C181.732 27.8193 182.11 28.1171 182.528 28.2561C183.185 28.4943 183.902 28.1767 184.28 27.6009L187.445 22.7568C188.022 20.8906 184.021 20.4538 182.767 20.3546L182.747 20.3744ZM174.109 18.6075L172.875 18.0119C172.497 17.8332 172.457 17.2972 172.796 17.059L173.93 16.2847C174.288 16.0465 174.766 16.2847 174.806 16.7016L174.905 18.0516C174.945 18.4685 174.507 18.7663 174.109 18.5876V18.6075Z" stroke="#231815" stroke-width="3.97061" stroke-linecap="round" stroke-linejoin="round"/>
<path d="M173.353 11.798C174.627 12.5921 176.299 12.2348 177.115 10.984C177.931 9.73327 177.553 8.06561 176.299 7.27149C175.025 6.47737 173.353 6.83472 172.537 8.08546C171.721 9.33621 172.099 11.0039 173.353 11.798Z" stroke="#231815" stroke-width="3.97061" stroke-linecap="round" stroke-linejoin="round"/>
<path d="M182.747 20.3744C182.528 20.3744 182.369 20.1759 182.369 19.9774C182.329 16.3442 180.956 14.2398 180.458 13.5847C180.339 13.4258 180.339 13.2472 180.399 13.0685C181.394 10.8648 181.175 8.60156 180.021 5.46477C178.806 2.18902 177.274 3.32064 177.274 3.32064C175.741 4.33315 177.592 5.66331 177.592 5.66331C179.065 7.15228 178.707 10.1302 178.727 10.8052C178.747 11.4802 178.03 13.1082 175.98 13.545C173.93 13.9817 172.159 15.57 170.686 16.9795C169.213 18.3891 175.244 20.7318 175.244 20.7318C176.219 20.9303 175.045 21.7046 175.045 21.7046L166.984 26.1715C166.287 26.5487 165.869 27.323 166.028 28.0973C166.128 28.673 166.486 28.8914 166.824 28.9509C167.163 29.0105 167.521 28.9311 167.82 28.7524L176.279 23.4913C177.154 22.9553 178.15 22.6377 179.185 22.598C181.334 22.5384 182.887 23.0744 182.887 23.0744C185.096 23.0149 183.165 25.0597 182.23 25.9333C181.872 26.2708 181.653 26.7274 181.692 27.2039C181.732 27.8193 182.11 28.1171 182.528 28.2561C183.185 28.4943 183.902 28.1767 184.28 27.6009L187.445 22.7568C188.022 20.8906 184.021 20.4538 182.767 20.3546L182.747 20.3744ZM174.109 18.6075L172.875 18.0119C172.497 17.8332 172.457 17.2972 172.796 17.059L173.93 16.2847C174.288 16.0465 174.766 16.2847 174.806 16.7016L174.905 18.0516C174.945 18.4685 174.507 18.7663 174.109 18.5876V18.6075Z" stroke="#231815" stroke-width="1.48898" stroke-linecap="round" stroke-linejoin="round"/>
<path d="M173.353 11.798C174.627 12.5921 176.299 12.2348 177.115 10.984C177.931 9.73327 177.553 8.06561 176.299 7.27149C175.025 6.47737 173.353 6.83472 172.537 8.08546C171.721 9.33621 172.099 11.0039 173.353 11.798Z" stroke="#231815" stroke-width="1.48898" stroke-linecap="round" stroke-linejoin="round"/>
<path d="M182.747 20.3744C182.528 20.3744 182.369 20.1759 182.369 19.9774C182.329 16.3442 180.956 14.2398 180.458 13.5847C180.339 13.4258 180.339 13.2472 180.399 13.0685C181.394 10.8648 181.175 8.60156 180.021 5.46477C178.806 2.18902 177.274 3.32064 177.274 3.32064C175.741 4.33315 177.592 5.66331 177.592 5.66331C179.065 7.15228 178.707 10.1302 178.727 10.8052C178.747 11.4802 178.03 13.1082 175.98 13.545C173.93 13.9817 172.159 15.57 170.686 16.9795C169.213 18.3891 175.244 20.7318 175.244 20.7318C176.219 20.9303 175.045 21.7046 175.045 21.7046L166.984 26.1715C166.287 26.5487 165.869 27.323 166.028 28.0973C166.128 28.673 166.486 28.8914 166.824 28.9509C167.163 29.0105 167.521 28.9311 167.82 28.7524L176.279 23.4913C177.154 22.9553 178.15 22.6377 179.185 22.598C181.334 22.5384 182.887 23.0744 182.887 23.0744C185.096 23.0149 183.165 25.0597 182.23 25.9333C181.872 26.2708 181.653 26.7274 181.692 27.2039C181.732 27.8193 182.11 28.1171 182.528 28.2561C183.185 28.4943 183.902 28.1767 184.28 27.6009L187.445 22.7568C188.022 20.8906 184.021 20.4538 182.767 20.3546L182.747 20.3744ZM174.109 18.6075L172.875 18.0119C172.497 17.8332 172.457 17.2972 172.796 17.059L173.93 16.2847C174.288 16.0465 174.766 16.2847 174.806 16.7016L174.905 18.0516C174.945 18.4685 174.507 18.7663 174.109 18.5876V18.6075Z" fill="#231815"/>
<path d="M173.353 11.798C174.627 12.5921 176.299 12.2348 177.115 10.984C177.931 9.73327 177.553 8.06561 176.299 7.27149C175.025 6.47737 173.353 6.83472 172.537 8.08546C171.721 9.33621 172.099 11.0039 173.353 11.798Z" fill="#231815"/>
</g>
<path d="M181.613 19.2427C181.394 19.2427 181.235 19.0442 181.235 18.8456C181.195 15.2125 179.822 13.1081 179.324 12.453C179.205 12.2941 179.205 12.1155 179.264 11.9368C180.26 9.73309 180.041 7.46985 178.886 4.33306C177.672 1.05731 176.14 2.18893 176.14 2.18893C174.607 3.20144 176.458 4.53159 176.458 4.53159C177.931 6.02057 177.573 8.99853 177.593 9.67353C177.612 10.3485 176.896 11.9765 174.846 12.4133C172.796 12.85 171.024 14.4383 169.552 15.8478C168.079 17.2574 174.109 19.6001 174.109 19.6001C175.085 19.7986 173.91 20.5729 173.91 20.5729L165.849 25.0398C165.153 25.417 164.735 26.1913 164.894 26.9655C164.994 27.5413 165.352 27.7597 165.69 27.8192C166.029 27.8788 166.387 27.7994 166.685 27.6207L175.144 22.3596C176.02 21.8236 177.015 21.506 178.05 21.4663C180.2 21.4067 181.752 21.9427 181.752 21.9427C183.962 21.8832 182.031 23.928 181.096 24.8016C180.737 25.1391 180.518 25.5957 180.558 26.0722C180.598 26.6876 180.976 26.9854 181.394 27.1244C182.051 27.3626 182.767 27.045 183.146 26.4692L186.31 21.6251C186.888 19.7589 182.887 19.3221 181.633 19.2229L181.613 19.2427ZM172.975 17.4956L171.741 16.9C171.363 16.7214 171.323 16.1853 171.661 15.9471L172.796 15.1728C173.154 14.9346 173.632 15.1728 173.672 15.5897L173.771 16.9398C173.811 17.3567 173.373 17.6545 172.975 17.4758V17.4956Z" fill="white"/>
<path d="M172.218 10.686C173.492 11.4802 175.164 11.1228 175.98 9.87207C176.796 8.62132 176.418 6.95367 175.164 6.15955C173.89 5.36543 172.218 5.72278 171.402 6.97352C170.586 8.22426 170.965 9.89192 172.218 10.686Z" fill="white"/>
<path d="M181.613 19.2427C181.394 19.2427 181.235 19.0442 181.235 18.8456C181.195 15.2125 179.822 13.1081 179.324 12.453C179.205 12.2941 179.205 12.1155 179.264 11.9368C180.26 9.73309 180.041 7.46985 178.886 4.33306C177.672 1.05731 176.14 2.18893 176.14 2.18893C174.607 3.20144 176.458 4.53159 176.458 4.53159C177.931 6.02057 177.573 8.99853 177.593 9.67353C177.612 10.3485 176.896 11.9765 174.846 12.4133C172.796 12.85 171.024 14.4383 169.552 15.8478C168.079 17.2574 174.109 19.6001 174.109 19.6001C175.085 19.7986 173.91 20.5729 173.91 20.5729L165.849 25.0398C165.153 25.417 164.735 26.1913 164.894 26.9655C164.994 27.5413 165.352 27.7597 165.69 27.8192C166.029 27.8788 166.387 27.7994 166.685 27.6207L175.144 22.3596C176.02 21.8236 177.015 21.506 178.05 21.4663C180.2 21.4067 181.752 21.9427 181.752 21.9427C183.962 21.8832 182.031 23.928 181.096 24.8016C180.737 25.1391 180.518 25.5957 180.558 26.0722C180.598 26.6876 180.976 26.9854 181.394 27.1244C182.051 27.3626 182.767 27.045 183.146 26.4692L186.31 21.6251C186.888 19.7589 182.887 19.3221 181.633 19.2229L181.613 19.2427ZM172.975 17.4956L171.741 16.9C171.363 16.7214 171.323 16.1853 171.661 15.9471L172.796 15.1728C173.154 14.9346 173.632 15.1728 173.672 15.5897L173.771 16.9398C173.811 17.3567 173.373 17.6545 172.975 17.4758V17.4956Z" stroke="#B6E1F7" stroke-width="3.97061" stroke-linecap="round" stroke-linejoin="round"/>
<path d="M172.218 10.686C173.492 11.4802 175.164 11.1228 175.98 9.87207C176.796 8.62132 176.418 6.95367 175.164 6.15955C173.89 5.36543 172.218 5.72278 171.402 6.97352C170.586 8.22426 170.965 9.89192 172.218 10.686Z" stroke="#B6E1F7" stroke-width="3.97061" stroke-linecap="round" stroke-linejoin="round"/>
<path d="M181.613 19.2427C181.394 19.2427 181.235 19.0442 181.235 18.8456C181.195 15.2125 179.822 13.1081 179.324 12.453C179.205 12.2941 179.205 12.1155 179.264 11.9368C180.26 9.73309 180.041 7.46985 178.886 4.33306C177.672 1.05731 176.14 2.18893 176.14 2.18893C174.607 3.20144 176.458 4.53159 176.458 4.53159C177.931 6.02057 177.573 8.99853 177.593 9.67353C177.612 10.3485 176.896 11.9765 174.846 12.4133C172.796 12.85 171.024 14.4383 169.552 15.8478C168.079 17.2574 174.109 19.6001 174.109 19.6001C175.085 19.7986 173.91 20.5729 173.91 20.5729L165.849 25.0398C165.153 25.417 164.735 26.1913 164.894 26.9655C164.994 27.5413 165.352 27.7597 165.69 27.8192C166.029 27.8788 166.387 27.7994 166.685 27.6207L175.144 22.3596C176.02 21.8236 177.015 21.506 178.05 21.4663C180.2 21.4067 181.752 21.9427 181.752 21.9427C183.962 21.8832 182.031 23.928 181.096 24.8016C180.737 25.1391 180.518 25.5957 180.558 26.0722C180.598 26.6876 180.976 26.9854 181.394 27.1244C182.051 27.3626 182.767 27.045 183.146 26.4692L186.31 21.6251C186.888 19.7589 182.887 19.3221 181.633 19.2229L181.613 19.2427ZM172.975 17.4956L171.741 16.9C171.363 16.7214 171.323 16.1853 171.661 15.9471L172.796 15.1728C173.154 14.9346 173.632 15.1728 173.672 15.5897L173.771 16.9398C173.811 17.3567 173.373 17.6545 172.975 17.4758V17.4956Z" stroke="white" stroke-width="1.48898" stroke-linecap="round" stroke-linejoin="round"/>
<path d="M172.218 10.686C173.492 11.4802 175.164 11.1228 175.98 9.87207C176.796 8.62132 176.418 6.95367 175.164 6.15955C173.89 5.36543 172.218 5.72278 171.402 6.97352C170.586 8.22426 170.965 9.89192 172.218 10.686Z" stroke="white" stroke-width="1.48898" stroke-linecap="round" stroke-linejoin="round"/>
<path d="M181.613 19.2427C181.394 19.2427 181.235 19.0442 181.235 18.8456C181.195 15.2125 179.822 13.1081 179.324 12.453C179.205 12.2941 179.205 12.1155 179.264 11.9368C180.26 9.73309 180.041 7.46985 178.886 4.33306C177.672 1.05731 176.14 2.18893 176.14 2.18893C174.607 3.20144 176.458 4.53159 176.458 4.53159C177.931 6.02057 177.573 8.99853 177.593 9.67353C177.612 10.3485 176.896 11.9765 174.846 12.4133C172.796 12.85 171.024 14.4383 169.552 15.8478C168.079 17.2574 174.109 19.6001 174.109 19.6001C175.085 19.7986 173.91 20.5729 173.91 20.5729L165.849 25.0398C165.153 25.417 164.735 26.1913 164.894 26.9655C164.994 27.5413 165.352 27.7597 165.69 27.8192C166.029 27.8788 166.387 27.7994 166.685 27.6207L175.144 22.3596C176.02 21.8236 177.015 21.506 178.05 21.4663C180.2 21.4067 181.752 21.9427 181.752 21.9427C183.962 21.8832 182.031 23.928 181.096 24.8016C180.737 25.1391 180.518 25.5957 180.558 26.0722C180.598 26.6876 180.976 26.9854 181.394 27.1244C182.051 27.3626 182.767 27.045 183.146 26.4692L186.31 21.6251C186.888 19.7589 182.887 19.3221 181.633 19.2229L181.613 19.2427ZM172.975 17.4956L171.741 16.9C171.363 16.7214 171.323 16.1853 171.661 15.9471L172.796 15.1728C173.154 14.9346 173.632 15.1728 173.672 15.5897L173.771 16.9398C173.811 17.3567 173.373 17.6545 172.975 17.4758V17.4956Z" fill="#479DB3"/>
<path d="M172.218 10.686C173.492 11.4802 175.164 11.1228 175.98 9.87207C176.796 8.62132 176.418 6.95367 175.164 6.15955C173.89 5.36543 172.218 5.72278 171.402 6.97352C170.586 8.22426 170.965 9.89192 172.218 10.686Z" fill="#479DB3"/>
<g style="mix-blend-mode:multiply" opacity="0.3">
<path d="M27.7582 23.1734C29.5296 23.0543 30.286 21.9028 30.9826 18.23L32.6147 8.2439H36.8542L35.0628 18.766C34.5453 22.0021 33.8487 23.9675 32.7739 25.3175C31.6195 26.6675 29.868 27.5212 27.7582 27.7594V23.1932V23.1734ZM44.5568 8.2439C46.5671 14.6564 47.821 20.1557 48.9157 27.3425H44.3578C43.8005 21.7837 41.7305 12.2939 40.198 8.2439H44.5767H44.5568Z" stroke="#231815" stroke-width="3.97061" stroke-linecap="round" stroke-linejoin="round"/>
<path d="M57.3946 8.52164V14.2195L69.9537 11.5989V15.6092L57.3946 17.932V21.6048C57.315 23.1136 57.8324 23.5703 59.5043 23.5703H70.7499V27.1835H58.4893C54.9265 27.2034 53.175 25.4761 53.3342 22.0813V8.52164H57.3946ZM69.0581 6.95325V10.4871H66.8289V6.95325H69.0581ZM71.9441 6.95325V10.4871H69.7547V6.95325H71.9441Z" stroke="#231815" stroke-width="3.97061" stroke-linecap="round" stroke-linejoin="round"/>
<path d="M78.8306 10.7455C79.7063 13.9419 80.1641 15.7287 80.801 18.7066H76.8004C76.3625 15.8676 75.8649 13.4058 75.1484 10.7455H78.8306ZM93.5791 10.6264V17.2772C93.7981 24.2059 90.9718 27.4023 84.7618 27.303H76.1038V23.8088H84.7618C88.5236 23.6699 89.897 21.9824 89.7576 17.6544V10.6066H93.5791V10.6264ZM84.9609 10.7455C85.7968 13.6242 86.5134 16.5426 86.9313 18.7066H82.9506C82.3137 15.2919 81.9953 13.8426 81.1792 10.7455H84.941H84.9609Z" stroke="#231815" stroke-width="3.97061" stroke-linecap="round" stroke-linejoin="round"/>
<path d="M105.382 7.4895V13.6241C110.796 14.9145 112.786 15.4506 116.21 16.6219V20.8705C113.085 19.7388 110.159 18.905 105.382 17.7535V27.8389H101.123V7.4895H105.382Z" stroke="#231815" stroke-width="3.97061" stroke-linecap="round" stroke-linejoin="round"/>
<path d="M121.405 15.6689C124.171 14.6961 125.206 12.7703 125.644 7.60852H129.884C129.505 9.99089 129.426 10.5071 128.968 11.8968H141.507V15.6292H136.412V19.8976C136.392 24.4836 133.506 27.4814 129.087 27.5211H122.798V23.9476H127.754C130.6 24.0071 132.033 22.6571 132.133 19.8976V15.6292H127.416C126.221 17.7336 124.689 18.8255 121.405 19.7586V15.649V15.6689Z" stroke="#231815" stroke-width="3.97061" stroke-linecap="round" stroke-linejoin="round"/>
<path d="M145.11 8.24385H164.118V13.2865C164.197 17.0983 161.968 19.2424 157.808 19.3219H156.136C156.037 22.816 155.718 24.0072 154.524 25.4763C153.29 26.9256 151.519 27.68 149.449 27.6601H145.13V23.9476H148.075C151.2 23.9675 151.956 23.1932 151.956 19.977V15.6292H157.609C159.42 15.5696 160.097 14.8946 160.117 13.1476V12.1351H145.09V8.224L145.11 8.24385Z" stroke="#231815" stroke-width="3.97061" stroke-linecap="round" stroke-linejoin="round"/>
<path d="M27.7582 23.1734C29.5296 23.0543 30.286 21.9028 30.9826 18.23L32.6147 8.2439H36.8542L35.0628 18.766C34.5453 22.0021 33.8487 23.9675 32.7739 25.3175C31.6195 26.6675 29.868 27.5212 27.7582 27.7594V23.1932V23.1734ZM44.5568 8.2439C46.5671 14.6564 47.821 20.1557 48.9157 27.3425H44.3578C43.8005 21.7837 41.7305 12.2939 40.198 8.2439H44.5767H44.5568Z" stroke="#231815" stroke-width="1.48898" stroke-linecap="round" stroke-linejoin="round"/>
<path d="M57.3946 8.52164V14.2195L69.9537 11.5989V15.6092L57.3946 17.932V21.6048C57.315 23.1136 57.8324 23.5703 59.5043 23.5703H70.7499V27.1835H58.4893C54.9265 27.2034 53.175 25.4761 53.3342 22.0813V8.52164H57.3946ZM69.0581 6.95325V10.4871H66.8289V6.95325H69.0581ZM71.9441 6.95325V10.4871H69.7547V6.95325H71.9441Z" stroke="#231815" stroke-width="1.48898" stroke-linecap="round" stroke-linejoin="round"/>
<path d="M78.8306 10.7455C79.7063 13.9419 80.1641 15.7287 80.801 18.7066H76.8004C76.3625 15.8676 75.8649 13.4058 75.1484 10.7455H78.8306ZM93.5791 10.6264V17.2772C93.7981 24.2059 90.9718 27.4023 84.7618 27.303H76.1038V23.8088H84.7618C88.5236 23.6699 89.897 21.9824 89.7576 17.6544V10.6066H93.5791V10.6264ZM84.9609 10.7455C85.7968 13.6242 86.5134 16.5426 86.9313 18.7066H82.9506C82.3137 15.2919 81.9953 13.8426 81.1792 10.7455H84.941H84.9609Z" stroke="#231815" stroke-width="1.48898" stroke-linecap="round" stroke-linejoin="round"/>
<path d="M105.382 7.4895V13.6241C110.796 14.9145 112.786 15.4506 116.21 16.6219V20.8705C113.085 19.7388 110.159 18.905 105.382 17.7535V27.8389H101.123V7.4895H105.382Z" stroke="#231815" stroke-width="1.48898" stroke-linecap="round" stroke-linejoin="round"/>
<path d="M121.405 15.6689C124.171 14.6961 125.206 12.7703 125.644 7.60852H129.884C129.505 9.99089 129.426 10.5071 128.968 11.8968H141.507V15.6292H136.412V19.8976C136.392 24.4836 133.506 27.4814 129.087 27.5211H122.798V23.9476H127.754C130.6 24.0071 132.033 22.6571 132.133 19.8976V15.6292H127.416C126.221 17.7336 124.689 18.8255 121.405 19.7586V15.649V15.6689Z" stroke="#231815" stroke-width="1.48898" stroke-linecap="round" stroke-linejoin="round"/>
<path d="M145.11 8.24385H164.118V13.2865C164.197 17.0983 161.968 19.2424 157.808 19.3219H156.136C156.037 22.816 155.718 24.0072 154.524 25.4763C153.29 26.9256 151.519 27.68 149.449 27.6601H145.13V23.9476H148.075C151.2 23.9675 151.956 23.1932 151.956 19.977V15.6292H157.609C159.42 15.5696 160.097 14.8946 160.117 13.1476V12.1351H145.09V8.224L145.11 8.24385Z" stroke="#231815" stroke-width="1.48898" stroke-linecap="round" stroke-linejoin="round"/>
<path d="M27.7582 23.1734C29.5296 23.0543 30.286 21.9028 30.9826 18.23L32.6147 8.2439H36.8542L35.0628 18.766C34.5453 22.0021 33.8487 23.9675 32.7739 25.3175C31.6195 26.6675 29.868 27.5212 27.7582 27.7594V23.1932V23.1734ZM44.5568 8.2439C46.5671 14.6564 47.821 20.1557 48.9157 27.3425H44.3578C43.8005 21.7837 41.7305 12.2939 40.198 8.2439H44.5767H44.5568Z" fill="#231815"/>
<path d="M57.3946 8.52164V14.2195L69.9537 11.5989V15.6092L57.3946 17.932V21.6048C57.315 23.1136 57.8324 23.5703 59.5043 23.5703H70.7499V27.1835H58.4893C54.9265 27.2034 53.175 25.4761 53.3342 22.0813V8.52164H57.3946ZM69.0581 6.95325V10.4871H66.8289V6.95325H69.0581ZM71.9441 6.95325V10.4871H69.7547V6.95325H71.9441Z" fill="#231815"/>
<path d="M78.8306 10.7455C79.7063 13.9419 80.1641 15.7287 80.801 18.7066H76.8004C76.3625 15.8676 75.8649 13.4058 75.1484 10.7455H78.8306ZM93.5791 10.6264V17.2772C93.7981 24.2059 90.9718 27.4023 84.7618 27.303H76.1038V23.8088H84.7618C88.5236 23.6699 89.897 21.9824 89.7576 17.6544V10.6066H93.5791V10.6264ZM84.9609 10.7455C85.7968 13.6242 86.5134 16.5426 86.9313 18.7066H82.9506C82.3137 15.2919 81.9953 13.8426 81.1792 10.7455H84.941H84.9609Z" fill="#231815"/>
<path d="M105.382 7.4895V13.6241C110.796 14.9145 112.786 15.4506 116.21 16.6219V20.8705C113.085 19.7388 110.159 18.905 105.382 17.7535V27.8389H101.123V7.4895H105.382Z" fill="#231815"/>
<path d="M121.405 15.6689C124.171 14.6961 125.206 12.7703 125.644 7.60852H129.884C129.505 9.99089 129.426 10.5071 128.968 11.8968H141.507V15.6292H136.412V19.8976C136.392 24.4836 133.506 27.4814 129.087 27.5211H122.798V23.9476H127.754C130.6 24.0071 132.033 22.6571 132.133 19.8976V15.6292H127.416C126.221 17.7336 124.689 18.8255 121.405 19.7586V15.649V15.6689Z" fill="#231815"/>
<path d="M145.11 8.24385H164.118V13.2865C164.197 17.0983 161.968 19.2424 157.808 19.3219H156.136C156.037 22.816 155.718 24.0072 154.524 25.4763C153.29 26.9256 151.519 27.68 149.449 27.6601H145.13V23.9476H148.075C151.2 23.9675 151.956 23.1932 151.956 19.977V15.6292H157.609C159.42 15.5696 160.097 14.8946 160.117 13.1476V12.1351H145.09V8.224L145.11 8.24385Z" fill="#231815"/>
</g>
<path d="M26.6238 22.0417C28.3952 21.9226 29.1516 20.7711 29.8482 17.0983L31.4803 7.11218H35.7197L33.9284 17.6343C33.4109 20.8704 32.7143 22.8358 31.6395 24.1858C30.4851 25.5358 28.7336 26.3895 26.6238 26.6277V22.0615V22.0417ZM43.4224 7.11218C45.4327 13.5247 46.6866 19.024 47.7813 26.2108H43.2234C42.6661 20.652 40.5961 11.1622 39.0635 7.11218H43.4423H43.4224Z" stroke="#B6E1F7" stroke-width="3.97061" stroke-linecap="round" stroke-linejoin="round"/>
<path d="M56.2801 7.39034V13.0882L68.8393 10.4676V14.4779L56.2801 16.8007V20.4735C56.2005 21.9823 56.718 22.4389 58.3899 22.4389H69.6354V26.0522H57.3748C53.8121 26.0721 52.0606 24.3448 52.2198 20.95V7.39034H56.2801ZM67.9237 5.8418V9.37564H65.6945V5.8418H67.9237ZM70.8097 5.8418V9.37564H68.6203V5.8418H70.8097Z" stroke="#B6E1F7" stroke-width="3.97061" stroke-linecap="round" stroke-linejoin="round"/>
<path d="M77.6965 9.61399C78.5723 12.8103 79.03 14.5971 79.6669 17.5751H75.6663C75.2284 14.7361 74.7309 12.2743 74.0143 9.61399H77.6965ZM92.445 9.51473V16.1655C92.664 23.0942 89.8377 26.2906 83.6278 26.1913H74.9697V22.6972H83.6278C87.3895 22.5582 88.7629 20.8707 88.6236 16.5427V9.49487H92.445V9.51473ZM83.8467 9.61399C84.6826 12.4927 85.3992 15.4111 85.8171 17.5751H81.8364C81.1995 14.1603 80.8811 12.7111 80.065 9.61399H83.8268H83.8467Z" stroke="#B6E1F7" stroke-width="3.97061" stroke-linecap="round" stroke-linejoin="round"/>
<path d="M104.248 6.35815V12.4927C109.662 13.7832 111.652 14.3192 115.075 15.4906V19.7391C111.95 18.6075 109.025 17.7737 104.248 16.6222V26.7075H99.9884V6.35815H104.248Z" stroke="#B6E1F7" stroke-width="3.97061" stroke-linecap="round" stroke-linejoin="round"/>
<path d="M120.27 14.5375C123.037 13.5647 124.072 11.639 124.51 6.47717H128.749C128.371 8.85954 128.291 9.37572 127.834 10.7654H140.373V14.4978H135.278V18.7662C135.258 23.3523 132.372 26.3501 127.953 26.3898H121.664V22.8162H126.62C129.466 22.8758 130.899 21.5258 130.998 18.7662V14.4978H126.281C125.087 16.6022 123.554 17.6941 120.27 18.6272V14.5177V14.5375Z" stroke="#B6E1F7" stroke-width="3.97061" stroke-linecap="round" stroke-linejoin="round"/>
<path d="M143.995 7.11226H163.003V12.1549C163.083 15.9667 160.853 18.1109 156.694 18.1903H155.022C154.922 21.6844 154.604 22.8756 153.409 24.3447C152.175 25.794 150.404 26.5484 148.334 26.5286H144.015V22.816H146.961C150.086 22.8359 150.842 22.0616 150.842 18.8454V14.4976H156.495C158.306 14.438 158.982 13.763 159.002 12.016V11.0035H143.975V7.09241L143.995 7.11226Z" stroke="#B6E1F7" stroke-width="3.97061" stroke-linecap="round" stroke-linejoin="round"/>
<path d="M26.6238 22.0417C28.3952 21.9226 29.1516 20.7711 29.8482 17.0983L31.4803 7.11218H35.7197L33.9284 17.6343C33.4109 20.8704 32.7143 22.8358 31.6395 24.1858C30.4851 25.5358 28.7336 26.3895 26.6238 26.6277V22.0615V22.0417ZM43.4224 7.11218C45.4327 13.5247 46.6866 19.024 47.7813 26.2108H43.2234C42.6661 20.652 40.5961 11.1622 39.0635 7.11218H43.4423H43.4224Z" stroke="white" stroke-width="1.48898" stroke-linecap="round" stroke-linejoin="round"/>
<path d="M56.2801 7.39034V13.0882L68.8393 10.4676V14.4779L56.2801 16.8007V20.4735C56.2005 21.9823 56.718 22.4389 58.3899 22.4389H69.6354V26.0522H57.3748C53.8121 26.0721 52.0606 24.3448 52.2198 20.95V7.39034H56.2801ZM67.9237 5.8418V9.37564H65.6945V5.8418H67.9237ZM70.8097 5.8418V9.37564H68.6203V5.8418H70.8097Z" stroke="white" stroke-width="1.48898" stroke-linecap="round" stroke-linejoin="round"/>
<path d="M77.6965 9.61399C78.5723 12.8103 79.03 14.5971 79.6669 17.5751H75.6663C75.2284 14.7361 74.7309 12.2743 74.0143 9.61399H77.6965ZM92.445 9.51473V16.1655C92.664 23.0942 89.8377 26.2906 83.6278 26.1913H74.9697V22.6972H83.6278C87.3895 22.5582 88.7629 20.8707 88.6236 16.5427V9.49487H92.445V9.51473ZM83.8467 9.61399C84.6826 12.4927 85.3992 15.4111 85.8171 17.5751H81.8364C81.1995 14.1603 80.8811 12.7111 80.065 9.61399H83.8268H83.8467Z" stroke="white" stroke-width="1.48898" stroke-linecap="round" stroke-linejoin="round"/>
<path d="M104.248 6.35815V12.4927C109.662 13.7832 111.652 14.3192 115.075 15.4906V19.7391C111.95 18.6075 109.025 17.7737 104.248 16.6222V26.7075H99.9884V6.35815H104.248Z" stroke="white" stroke-width="1.48898" stroke-linecap="round" stroke-linejoin="round"/>
<path d="M120.27 14.5375C123.037 13.5647 124.072 11.639 124.51 6.47717H128.749C128.371 8.85954 128.291 9.37572 127.834 10.7654H140.373V14.4978H135.278V18.7662C135.258 23.3523 132.372 26.3501 127.953 26.3898H121.664V22.8162H126.62C129.466 22.8758 130.899 21.5258 130.998 18.7662V14.4978H126.281C125.087 16.6022 123.554 17.6941 120.27 18.6272V14.5177V14.5375Z" stroke="white" stroke-width="1.48898" stroke-linecap="round" stroke-linejoin="round"/>
<path d="M143.995 7.11226H163.003V12.1549C163.083 15.9667 160.853 18.1109 156.694 18.1903H155.022C154.922 21.6844 154.604 22.8756 153.409 24.3447C152.175 25.794 150.404 26.5484 148.334 26.5286H144.015V22.816H146.961C150.086 22.8359 150.842 22.0616 150.842 18.8454V14.4976H156.495C158.306 14.438 158.982 13.763 159.002 12.016V11.0035H143.975V7.09241L143.995 7.11226Z" stroke="white" stroke-width="1.48898" stroke-linecap="round" stroke-linejoin="round"/>
<path d="M26.6238 22.0417C28.3952 21.9226 29.1516 20.7711 29.8482 17.0983L31.4803 7.11218H35.7197L33.9284 17.6343C33.4109 20.8704 32.7143 22.8358 31.6395 24.1858C30.4851 25.5358 28.7336 26.3895 26.6238 26.6277V22.0615V22.0417ZM43.4224 7.11218C45.4327 13.5247 46.6866 19.024 47.7813 26.2108H43.2234C42.6661 20.652 40.5961 11.1622 39.0635 7.11218H43.4423H43.4224Z" fill="#479DB3"/>
<path d="M56.2801 7.39034V13.0882L68.8393 10.4676V14.4779L56.2801 16.8007V20.4735C56.2005 21.9823 56.718 22.4389 58.3899 22.4389H69.6354V26.0522H57.3748C53.8121 26.0721 52.0606 24.3448 52.2198 20.95V7.39034H56.2801ZM67.9237 5.8418V9.37564H65.6945V5.8418H67.9237ZM70.8097 5.8418V9.37564H68.6203V5.8418H70.8097Z" fill="#479DB3"/>
<path d="M77.6965 9.61399C78.5723 12.8103 79.03 14.5971 79.6669 17.5751H75.6663C75.2284 14.7361 74.7309 12.2743 74.0143 9.61399H77.6965ZM92.445 9.51473V16.1655C92.664 23.0942 89.8377 26.2906 83.6278 26.1913H74.9697V22.6972H83.6278C87.3895 22.5582 88.7629 20.8707 88.6236 16.5427V9.49487H92.445V9.51473ZM83.8467 9.61399C84.6826 12.4927 85.3992 15.4111 85.8171 17.5751H81.8364C81.1995 14.1603 80.8811 12.7111 80.065 9.61399H83.8268H83.8467Z" fill="#479DB3"/>
<path d="M104.248 6.35815V12.4927C109.662 13.7832 111.652 14.3192 115.075 15.4906V19.7391C111.95 18.6075 109.025 17.7737 104.248 16.6222V26.7075H99.9884V6.35815H104.248Z" fill="#479DB3"/>
<path d="M120.27 14.5375C123.037 13.5647 124.072 11.639 124.51 6.47717H128.749C128.371 8.85954 128.291 9.37572 127.834 10.7654H140.373V14.4978H135.278V18.7662C135.258 23.3523 132.372 26.3501 127.953 26.3898H121.664V22.8162H126.62C129.466 22.8758 130.899 21.5258 130.998 18.7662V14.4978H126.281C125.087 16.6022 123.554 17.6941 120.27 18.6272V14.5177V14.5375Z" fill="#479DB3"/>
<path d="M143.995 7.11226H163.003V12.1549C163.083 15.9667 160.853 18.1109 156.694 18.1903H155.022C154.922 21.6844 154.604 22.8756 153.409 24.3447C152.175 25.794 150.404 26.5484 148.334 26.5286H144.015V22.816H146.961C150.086 22.8359 150.842 22.0616 150.842 18.8454V14.4976H156.495C158.306 14.438 158.982 13.763 159.002 12.016V11.0035H143.975V7.09241L143.995 7.11226Z" fill="#479DB3"/>
<path d="M18.8615 12.3141L17.926 12.0758L18.7819 8.48242L19.7372 8.72066L18.8615 12.3141Z" stroke="#B6E1F7" stroke-width="1.48898" stroke-linecap="round" stroke-linejoin="round"/>
<path d="M18.8615 12.3141L17.926 12.0758L18.7819 8.48242L19.7372 8.72066L18.8615 12.3141Z" stroke="white" stroke-width="0.595592" stroke-linecap="round" stroke-linejoin="round"/>
<path d="M18.8615 12.3141L17.926 12.0758L18.7819 8.48242L19.7372 8.72066L18.8615 12.3141Z" fill="#479DB3"/>
<path d="M7.33733 14.9547L6.76012 15.7289L3.75468 13.5252L4.33189 12.751L7.33733 14.9547Z" stroke="#B6E1F7" stroke-width="1.48898" stroke-linecap="round" stroke-linejoin="round"/>
<path d="M7.33733 14.9547L6.76012 15.7289L3.75468 13.5252L4.33189 12.751L7.33733 14.9547Z" stroke="white" stroke-width="0.595592" stroke-linecap="round" stroke-linejoin="round"/>
<path d="M7.33733 14.9547L6.76012 15.7289L3.75468 13.5252L4.33189 12.751L7.33733 14.9547Z" fill="#479DB3"/>
<path d="M12.592 12.0161L11.6765 12.3139L10.542 8.78002L11.4774 8.50208L12.592 12.0161Z" stroke="#B6E1F7" stroke-width="1.48898" stroke-linecap="round" stroke-linejoin="round"/>
<path d="M12.592 12.0161L11.6765 12.3139L10.542 8.78002L11.4774 8.50208L12.592 12.0161Z" stroke="white" stroke-width="0.595592" stroke-linecap="round" stroke-linejoin="round"/>
<path d="M12.592 12.0161L11.6765 12.3139L10.542 8.78002L11.4774 8.50208L12.592 12.0161Z" fill="#479DB3"/>
<path d="M23.6782 14.9941L22.9219 14.3787L25.3501 11.5596L26.0865 12.175L23.6782 14.9941Z" stroke="#B6E1F7" stroke-width="1.48898" stroke-linecap="round" stroke-linejoin="round"/>
<path d="M23.6782 14.9941L22.9219 14.3787L25.3501 11.5596L26.0865 12.175L23.6782 14.9941Z" stroke="white" stroke-width="0.595592" stroke-linecap="round" stroke-linejoin="round"/>
<path d="M23.6782 14.9941L22.9219 14.3787L25.3501 11.5596L26.0865 12.175L23.6782 14.9941Z" fill="#479DB3"/>
<path d="M4.76976 20.9698H1.02789V21.9426H4.76976V20.9698Z" stroke="#B6E1F7" stroke-width="1.48898" stroke-linecap="round" stroke-linejoin="round"/>
<path d="M4.76976 20.9698H1.02789V21.9426H4.76976V20.9698Z" stroke="white" stroke-width="0.595592" stroke-linecap="round" stroke-linejoin="round"/>
<path d="M4.76976 20.9698H1.02789V21.9426H4.76976V20.9698Z" fill="#479DB3"/>
</svg>
