<svg width="42" height="26" viewBox="0 0 42 26" fill="none" xmlns="http://www.w3.org/2000/svg">
<path d="M24.5311 4.74998C24.5311 4.3853 24.6727 4.03557 24.9247 3.77771C25.1767 3.51984 25.5185 3.37498 25.8749 3.37498H40.6561C41.0125 3.37498 41.3543 3.51984 41.6063 3.77771C41.8583 4.03557 41.9999 4.3853 41.9999 4.74998C41.9999 5.11465 41.8583 5.46439 41.6063 5.72225C41.3543 5.98011 41.0125 6.12498 40.6561 6.12498H25.8749C25.5185 6.12498 25.1767 5.98011 24.9247 5.72225C24.6727 5.46439 24.5311 5.11465 24.5311 4.74998ZM40.6561 11.625H25.8749C25.5185 11.625 25.1767 11.7698 24.9247 12.0277C24.6727 12.2856 24.5311 12.6353 24.5311 13C24.5311 13.3647 24.6727 13.7144 24.9247 13.9723C25.1767 14.2301 25.5185 14.375 25.8749 14.375H40.6561C41.0125 14.375 41.3543 14.2301 41.6063 13.9723C41.8583 13.7144 41.9999 13.3647 41.9999 13C41.9999 12.6353 41.8583 12.2856 41.6063 12.0277C41.3543 11.7698 41.0125 11.625 40.6561 11.625ZM40.6561 19.875H29.9061C29.5498 19.875 29.208 20.0198 28.956 20.2777C28.704 20.5356 28.5624 20.8853 28.5624 21.25C28.5624 21.6147 28.704 21.9644 28.956 22.2223C29.208 22.4801 29.5498 22.625 29.9061 22.625H40.6561C41.0125 22.625 41.3543 22.4801 41.6063 22.2223C41.8583 21.9644 41.9999 21.6147 41.9999 21.25C41.9999 20.8853 41.8583 20.5356 41.6063 20.2777C41.3543 20.0198 41.0125 19.875 40.6561 19.875ZM24.4892 23.6562C24.5331 23.8312 24.5429 24.0132 24.5181 24.192C24.4932 24.3708 24.4342 24.5429 24.3443 24.6983C24.2545 24.8538 24.1356 24.9896 23.9944 25.0981C23.8533 25.2065 23.6926 25.2854 23.5217 25.3303C23.4121 25.3605 23.2991 25.3755 23.1857 25.375C22.8877 25.3751 22.5981 25.2739 22.3624 25.0872C22.1268 24.9005 21.9585 24.639 21.884 24.3437C20.8493 20.229 16.7878 17.125 12.4357 17.125C8.08365 17.125 4.02216 20.2273 2.98748 24.3437C2.89838 24.697 2.67578 24.9996 2.36866 25.1849C2.06153 25.3703 1.69503 25.4232 1.34978 25.332C1.00453 25.2408 0.708819 25.0131 0.527693 24.6988C0.346566 24.3845 0.294864 24.0095 0.383961 23.6562C1.32291 19.9248 4.0524 16.9033 7.51591 15.4062C6.18229 14.3551 5.20364 12.9033 4.71719 11.2543C4.23075 9.60527 4.26091 7.84182 4.80346 6.21124C5.34601 4.58066 6.37373 3.16474 7.74248 2.16206C9.11123 1.15938 10.7524 0.620239 12.4357 0.620239C14.1191 0.620239 15.7602 1.15938 17.129 2.16206C18.4977 3.16474 19.5254 4.58066 20.068 6.21124C20.6105 7.84182 20.6407 9.60527 20.1542 11.2543C19.6678 12.9033 18.6891 14.3551 17.3555 15.4062C20.8207 16.9033 23.5502 19.9248 24.4892 23.6562ZM12.4374 14.375C13.5005 14.375 14.5397 14.0524 15.4236 13.4481C16.3075 12.8437 16.9964 11.9847 17.4033 10.9797C17.8101 9.97474 17.9165 8.86888 17.7091 7.80198C17.5017 6.73509 16.9898 5.75508 16.2381 4.98589C15.4864 4.2167 14.5287 3.69288 13.486 3.48066C12.4434 3.26844 11.3626 3.37736 10.3805 3.79364C9.39832 4.20992 8.55886 4.91487 7.96825 5.81934C7.37764 6.72381 7.0624 7.78718 7.0624 8.87498C7.0624 10.3337 7.62869 11.7326 8.6367 12.7641C9.64471 13.7955 11.0119 14.375 12.4374 14.375Z" fill="#48A5BC"/>
</svg>
