<svg width="43" height="44" viewBox="0 0 43 44" fill="none" xmlns="http://www.w3.org/2000/svg">
<path d="M25.5313 13.75C25.5313 13.3854 25.6728 13.0356 25.9248 12.7778C26.1768 12.5199 26.5186 12.375 26.875 12.375H41.6563C42.0127 12.375 42.3544 12.5199 42.6064 12.7778C42.8584 13.0356 43 13.3854 43 13.75C43 14.1147 42.8584 14.4644 42.6064 14.7223C42.3544 14.9802 42.0127 15.125 41.6563 15.125H26.875C26.5186 15.125 26.1768 14.9802 25.9248 14.7223C25.6728 14.4644 25.5313 14.1147 25.5313 13.75ZM41.6563 20.625H26.875C26.5186 20.625 26.1768 20.7699 25.9248 21.0278C25.6728 21.2856 25.5313 21.6354 25.5313 22C25.5313 22.3647 25.6728 22.7144 25.9248 22.9723C26.1768 23.2302 26.5186 23.375 26.875 23.375H41.6563C42.0127 23.375 42.3544 23.2302 42.6064 22.9723C42.8584 22.7144 43 22.3647 43 22C43 21.6354 42.8584 21.2856 42.6064 21.0278C42.3544 20.7699 42.0127 20.625 41.6563 20.625ZM41.6563 28.875H30.9063C30.5499 28.875 30.2081 29.0199 29.9561 29.2778C29.7041 29.5356 29.5625 29.8854 29.5625 30.25C29.5625 30.6147 29.7041 30.9644 29.9561 31.2223C30.2081 31.4802 30.5499 31.625 30.9063 31.625H41.6563C42.0127 31.625 42.3544 31.4802 42.6064 31.2223C42.8584 30.9644 43 30.6147 43 30.25C43 29.8854 42.8584 29.5356 42.6064 29.2778C42.3544 29.0199 42.0127 28.875 41.6563 28.875ZM25.4893 32.6563C25.5332 32.8312 25.543 33.0133 25.5182 33.1921C25.4933 33.3709 25.4343 33.5429 25.3444 33.6984C25.2546 33.8539 25.1357 33.9897 24.9945 34.0981C24.8534 34.2066 24.6927 34.2855 24.5218 34.3304C24.4123 34.3606 24.2993 34.3756 24.1858 34.375C23.8878 34.3752 23.5982 34.274 23.3626 34.0873C23.1269 33.9006 22.9586 33.6391 22.8841 33.3438C21.8494 29.2291 17.7879 26.125 13.4358 26.125C9.08377 26.125 5.02229 29.2274 3.9876 33.3438C3.8985 33.6971 3.67591 33.9997 3.36878 34.185C3.06165 34.3703 2.69515 34.4232 2.3499 34.3321C2.00466 34.2409 1.70894 34.0131 1.52781 33.6989C1.34669 33.3846 1.29499 33.0096 1.38408 32.6563C2.32303 28.9249 5.05252 25.9033 8.51604 24.4063C7.18242 23.3552 6.20376 21.9034 5.71731 20.2543C5.23087 18.6053 5.26103 16.8419 5.80358 15.2113C6.34613 13.5807 7.37385 12.1648 8.7426 11.1621C10.1114 10.1594 11.7525 9.6203 13.4358 9.6203C15.1192 9.6203 16.7603 10.1594 18.1291 11.1621C19.4978 12.1648 20.5255 13.5807 21.0681 15.2113C21.6106 16.8419 21.6408 18.6053 21.1544 20.2543C20.6679 21.9034 19.6893 23.3552 18.3556 24.4063C21.8208 25.9033 24.5503 28.9249 25.4893 32.6563ZM13.4375 23.375C14.5006 23.375 15.5398 23.0525 16.4237 22.4481C17.3076 21.8438 17.9966 20.9848 18.4034 19.9798C18.8102 18.9748 18.9166 17.8689 18.7092 16.802C18.5018 15.7351 17.9899 14.7551 17.2382 13.986C16.4865 13.2168 15.5288 12.6929 14.4861 12.4807C13.4435 12.2685 12.3627 12.3774 11.3806 12.7937C10.3984 13.21 9.55898 13.9149 8.96837 14.8194C8.37776 15.7239 8.06252 16.7872 8.06252 17.875C8.06252 19.3337 8.62881 20.7327 9.63682 21.7641C10.6448 22.7956 12.012 23.375 13.4375 23.375Z" fill="white"/>
</svg>
