<svg width="40" height="40" viewBox="0 0 40 40" fill="none" xmlns="http://www.w3.org/2000/svg">
<circle cx="20" cy="20" r="19.5" fill="white" stroke="#949191"/>
<path d="M20.4082 9.7959C21.7072 9.7959 22.9531 10.3119 23.8716 11.2305C24.7901 12.149 25.3062 13.3948 25.3062 14.6939C25.3062 15.9929 24.7901 17.2387 23.8716 18.1572C22.9531 19.0758 21.7072 19.5918 20.4082 19.5918C19.1092 19.5918 17.8634 19.0758 16.9448 18.1572C16.0263 17.2387 15.5103 15.9929 15.5103 14.6939C15.5103 13.3948 16.0263 12.149 16.9448 11.2305C17.8634 10.3119 19.1092 9.7959 20.4082 9.7959ZM20.4082 22.0408C25.8205 22.0408 30.2041 24.2326 30.2041 26.9388V29.3877H10.6123V26.9388C10.6123 24.2326 14.996 22.0408 20.4082 22.0408Z" fill="#454545"/>
</svg>
